<?xml version="1.0" encoding="iso-8859-1"?>
<!-- Generator: Adobe Illustrator 19.0.0, SVG Export Plug-In . SVG Version: 6.00 Build 0)  -->
<svg version="1.1" id="Capa_1" xmlns="http://www.w3.org/2000/svg" xmlns:xlink="http://www.w3.org/1999/xlink" x="0px" y="0px"
	 viewBox="0 0 512 512" style="enable-background:new 0 0 512 512;" xml:space="preserve">
<path style="fill:#F6B545;" d="M190.836,356.073l88.436-88.436l-34.909-34.909L6.982,470.109C2.327,474.764,0,480.582,0,487.564
	C0,501.527,10.473,512,24.436,512c6.982,0,12.8-2.327,17.455-6.982l23.273-23.273c9.309-9.309,23.273-9.309,32.582,0l11.636,11.636
	c4.655,4.655,10.473,6.982,17.455,6.982c13.964,0,24.436-10.473,24.436-24.436c0-6.982-2.327-12.8-6.982-17.455L128,442.182
	l23.273-23.273l39.564,39.564c4.655,4.655,10.473,6.982,17.455,6.982c13.964,0,24.436-10.473,24.436-24.436
	c0-6.982-2.327-12.8-6.982-17.455l-34.909-34.909C181.527,379.345,181.527,365.382,190.836,356.073z"/>
<path style="fill:#E78825;" d="M65.164,481.745c9.309-9.309,23.273-9.309,32.582,0l11.636,11.636
	c4.655,4.655,10.473,6.982,17.455,6.982c13.964,0,24.436-10.473,24.436-24.436c0-6.982-2.327-12.8-6.982-17.455L128,442.182
	l23.273-23.273l39.564,39.564c4.655,4.655,10.473,6.982,17.455,6.982c13.964,0,24.436-10.473,24.436-24.436
	c0-6.982-2.327-12.8-6.982-17.455l-34.909-34.909c-9.309-9.309-9.309-23.273,0-32.582L65.164,481.745z"/>
<g>
	<path style="fill:#F19920;" d="M261.818,250.182l-17.455-17.455l-3.491,3.491c-4.655,4.655-4.655,11.636,0,16.291l1.164,1.164
		c4.655,4.655,4.655,11.636,0,16.291L6.982,505.018C11.636,509.673,17.455,512,24.436,512s12.8-2.327,17.455-6.982L268.8,278.109
		l10.473-10.473L261.818,250.182z"/>
	<path style="fill:#F19920;" d="M144.291,493.382c4.655-4.655,6.982-10.473,6.982-17.455s-2.327-12.8-6.982-17.455l-4.655-4.655
		L128,442.182l-9.309,9.309c-4.655,4.655-4.655,11.636,0,16.291L144.291,493.382z"/>
	<path style="fill:#F19920;" d="M225.745,458.473c4.655-4.655,6.982-10.473,6.982-17.455c0-6.982-2.327-12.8-6.982-17.455
		l-23.273-23.273l-11.636-11.636c-1.164-1.164-3.491-3.491-3.491-5.818l-10.473,10.473c-4.655,4.655-4.655,11.636,0,16.291
		L225.745,458.473z"/>
</g>
<path style="fill:#F6B545;" d="M512,93.091C512,41.891,470.109,0,418.909,0c-33.745,0-62.836,17.455-79.127,44.218
	c-11.636-5.818-23.273-9.309-37.236-9.309c-45.382,0-81.455,36.073-81.455,81.455c0,25.6,11.636,47.709,30.255,62.836
	l-10.473,10.473c-4.655,4.655-8.145,12.8-8.145,19.782c0,6.982,3.491,15.127,8.145,19.782l41.891,41.891
	c5.818,5.818,12.8,8.145,19.782,8.145c6.982,0,15.127-3.491,19.782-8.145l10.473-10.473c15.127,18.618,37.236,30.255,62.836,30.255
	c45.382,0,81.455-36.073,81.455-81.455c0-13.964-3.491-25.6-9.309-37.236C494.545,155.927,512,126.836,512,93.091z M418.909,128
	C399.127,128,384,112.873,384,93.091s15.127-34.909,34.909-34.909c19.782,0,34.909,15.127,34.909,34.909S438.691,128,418.909,128z"
	/>
<g>
	<path style="fill:#F19920;" d="M314.182,209.455c0-4.655,0-8.145,1.164-12.8c-4.655,1.164-8.145,1.164-12.8,1.164
		c-19.782,0-37.236-6.982-51.2-18.618l-10.473,10.473c0,1.164,0,1.164,0,2.327c9.309,6.982,25.6,12.8,40.727,15.127
		c8.145,1.164,11.636,11.636,5.818,17.455l-17.455,17.455c-4.655,4.655-4.655,11.636,0,16.291l12.8,12.8
		c5.818,5.818,12.8,8.145,19.782,8.145c6.982,0,15.127-3.491,19.782-8.145l10.473-10.473
		C321.164,246.691,314.182,229.236,314.182,209.455z"/>
	<path style="fill:#F19920;" d="M512,93.091C512,64,499.2,38.4,478.255,22.109c13.964,16.291,22.109,36.073,22.109,59.345
		c0,33.745-17.455,62.836-44.218,79.127c5.818,11.636,9.309,24.436,9.309,37.236c0,45.382-36.073,81.455-81.455,81.455
		c-19.782,0-37.236-6.982-51.2-18.618c15.127,18.618,37.236,30.255,62.836,30.255c45.382,0,81.455-36.073,81.455-81.455
		c0-13.964-3.491-25.6-9.309-37.236C494.545,155.927,512,126.836,512,93.091z"/>
</g>
<path style="fill:#FFCB5B;" d="M238.545,116.364c-3.491,0-5.818-2.327-5.818-5.818c0-34.909,29.091-64,64-64
	c3.491,0,5.818,2.327,5.818,5.818c0,3.491-2.327,5.818-5.818,5.818c-29.091,0-52.364,23.273-52.364,52.364
	C244.364,114.036,242.036,116.364,238.545,116.364z"/>
<path style="fill:#F19920;" d="M388.655,57.018c-2.327,2.327-4.655,3.491-5.818,5.818C371.2,76.8,371.2,96.582,385.164,108.218
	c1.164,1.164,2.327,2.327,3.491,2.327c-4.655-6.982-5.818-17.455-2.327-29.091c3.491-10.473,11.636-18.618,22.109-22.109
	c10.473-2.327,20.945-1.164,29.091,3.491c-1.164-1.164-1.164-2.327-2.327-3.491C423.564,46.545,402.618,46.545,388.655,57.018z"/>
<g>
	<path style="fill:#FFCB5B;" d="M300.218,186.182c-13.964,0-26.764-4.655-37.236-12.8c-2.327-2.327-3.491-5.818-1.164-8.145
		c2.327-2.327,5.818-3.491,8.145-1.164c10.473,8.145,24.436,11.636,38.4,9.309c3.491,0,5.818,1.164,6.982,4.655
		c0,3.491-1.164,5.818-4.655,6.982C306.036,186.182,303.709,186.182,300.218,186.182z"/>
	<path style="fill:#FFCB5B;" d="M354.909,58.182c-1.164,0-2.327,0-3.491-1.164c-2.327-1.164-3.491-5.818-2.327-8.145
		c9.309-13.964,23.273-24.436,38.4-30.255c3.491-1.164,5.818,0,6.982,3.491c1.164,3.491,0,5.818-3.491,6.982
		c-12.8,4.655-24.436,13.964-31.418,25.6C358.4,57.018,357.236,58.182,354.909,58.182z"/>
</g>
<g>
</g>
<g>
</g>
<g>
</g>
<g>
</g>
<g>
</g>
<g>
</g>
<g>
</g>
<g>
</g>
<g>
</g>
<g>
</g>
<g>
</g>
<g>
</g>
<g>
</g>
<g>
</g>
<g>
</g>
</svg>
